<?xml version="1.0" encoding="iso-8859-1"?>
<!-- Generator: Adobe Illustrator 19.0.0, SVG Export Plug-In . SVG Version: 6.00 Build 0)  -->
<svg version="1.1" id="Layer_1" xmlns="http://www.w3.org/2000/svg" xmlns:xlink="http://www.w3.org/1999/xlink" x="0px" y="0px"
	 viewBox="0 0 512 512" style="enable-background:new 0 0 512 512;" xml:space="preserve">
<g>
	<g>
		<path d="M500.915,196.355h-18.609c-20.311-92.916-96.02-164.937-189.885-180.513V7.918c0-4.374-3.544-7.918-7.918-7.918h-57.006
			c-4.374,0-7.917,3.544-7.917,7.918v7.26c-47.023,6.897-90.202,27.681-125.197,60.347c-35.034,32.701-58.787,74.39-68.916,120.83
			H11.085c-4.374,0-7.918,3.544-7.918,7.917v44.338c0,4.374,3.544,7.918,7.918,7.918h42.173c0.227,0.197,0.462,0.387,0.716,0.562
			c1.652,1.14,3.316,2.266,4.988,3.378c58.439,38.86,126.573,59.4,197.039,59.4c70.89,0,139.369-20.769,198.03-60.063
			c1.508-1.009,3.007-2.03,4.496-3.06c0.098-0.068,0.187-0.145,0.282-0.216h42.107c4.374,0,7.918-3.544,7.918-7.918v-44.338
			C508.833,199.898,505.289,196.355,500.915,196.355z M292.421,31.903c85.162,15.201,153.834,80.323,173.646,164.451H292.421V31.903
			z M235.414,15.835h41.171v180.52h-41.171V15.835z M256,304.033c-61.501,0-121.135-16.38-173.548-47.505h347.111
			C377.148,287.66,317.528,304.033,256,304.033z M492.998,240.693H19.002V212.19h144.099c4.374,0,7.918-3.544,7.918-7.918
			s-3.544-7.917-7.918-7.917H41.702C61.939,110.05,132.004,44.982,219.579,31.192v165.163h-14.252c-4.374,0-7.917,3.544-7.917,7.917
			s3.544,7.918,7.917,7.918h287.67V240.693z"/>
	</g>
</g>
<g>
	<g>
		<path d="M451.299,339.926h-34.837c-4.374,0-7.917,3.544-7.917,7.918s3.544,7.918,7.917,7.918h34.837
			c4.366,0,7.917,3.551,7.917,7.917v124.569c0,4.366-3.551,7.918-7.917,7.918h-83.398c-48.022,0-87.093-39.07-87.093-87.093v-27.447
			c0-4.374-3.544-7.918-7.917-7.918h-33.781c-4.374,0-7.918,3.544-7.918,7.918v27.447c0,48.022-39.07,87.093-87.093,87.093H60.701
			c-4.366,0-7.918-3.551-7.918-7.918V363.678c0-4.366,3.551-7.917,7.918-7.917h313.534c4.374,0,7.918-3.544,7.918-7.918
			s-3.544-7.918-7.918-7.918H60.701c-13.097,0-23.753,10.656-23.753,23.753v124.569c0,13.097,10.656,23.753,23.753,23.753h83.398
			c56.755,0,102.928-46.173,102.928-102.928v-19.53h17.946v19.53c0,56.755,46.173,102.928,102.928,102.928h83.398
			c13.097,0,23.753-10.656,23.753-23.753V363.678C475.052,350.582,464.396,339.926,451.299,339.926z"/>
	</g>
</g>
<g>
	<g>
		<path d="M207.439,371.596H76.536c-4.374,0-7.918,3.544-7.918,7.918v92.899c0,4.374,3.544,7.917,7.918,7.917h67.563
			c39.292,0,71.258-31.966,71.258-71.258v-29.559C215.357,375.14,211.813,371.596,207.439,371.596z M199.522,409.072
			c0,30.56-24.863,55.423-55.423,55.423H84.454v-77.064h115.068V409.072z"/>
	</g>
</g>
<g>
	<g>
		<path d="M435.464,371.596H304.561c-4.374,0-7.918,3.544-7.918,7.918v29.559c0,39.292,31.966,71.258,71.258,71.258h67.563
			c4.374,0,7.918-3.544,7.918-7.917v-92.899C443.381,375.14,439.838,371.596,435.464,371.596z M427.546,464.495h-59.645
			c-30.56,0-55.423-24.863-55.423-55.423v-21.641h115.068V464.495z"/>
	</g>
</g>
<g>
	<g>
		<path d="M379.834,399.251c-3.093-3.091-8.105-3.091-11.198,0l-30.614,30.614c-4.877,4.877-1.327,13.516,5.598,13.516
			c2.026,0,4.053-0.773,5.599-2.318l30.614-30.614C382.926,407.356,382.926,402.343,379.834,399.251z"/>
	</g>
</g>
<g>
	<g>
		<path d="M413.615,399.251c-3.093-3.091-8.105-3.091-11.198,0l-30.614,30.614c-3.091,3.092-3.091,8.104,0,11.197
			c3.051,3.05,8.147,3.05,11.198,0l30.614-30.614C416.707,407.356,416.707,402.343,413.615,399.251z"/>
	</g>
</g>
<g>
	<g>
		<path d="M142.309,399.251c-3.093-3.091-8.105-3.091-11.197,0l-30.614,30.614c-4.877,4.877-1.327,13.516,5.598,13.516
			c2.026,0,4.053-0.773,5.599-2.318l30.614-30.614C145.401,407.356,145.401,402.343,142.309,399.251z"/>
	</g>
</g>
<g>
	<g>
		<path d="M176.089,399.251c-3.093-3.091-8.105-3.091-11.197,0l-30.614,30.614c-3.091,3.092-3.091,8.104,0,11.197
			c3.051,3.05,8.147,3.05,11.197,0l30.614-30.614C179.181,407.356,179.181,402.343,176.089,399.251z"/>
	</g>
</g>
<g>
</g>
<g>
</g>
<g>
</g>
<g>
</g>
<g>
</g>
<g>
</g>
<g>
</g>
<g>
</g>
<g>
</g>
<g>
</g>
<g>
</g>
<g>
</g>
<g>
</g>
<g>
</g>
<g>
</g>
</svg>
