<svg xmlns="http://www.w3.org/2000/svg" viewBox="0 0 76.771 76.771"><path d="M23.034 18.455a69.81 69.81 0 0 0 30.431.004 1 1 0 0 0 .798-1.084C53.548 10.52 48.666 4.896 42.446 3.11V1.92a1 1 0 0 0-2 0v.767a14.999 14.999 0 0 0-2.19-.178c-.74 0-1.466.072-2.185.177V1.92a1 1 0 0 0-2 0v1.189c-6.218 1.785-11.102 7.41-11.816 14.266-.053.504.284.969.779 1.08zm11.037-13.25v3.097a1 1 0 0 0 2 0V4.703a13.142 13.142 0 0 1 2.19-.195c.741 0 1.469.074 2.185.194v3.599a1 1 0 0 0 2 0V5.204c4.927 1.64 8.805 6.059 9.707 11.492a68.001 68.001 0 0 1-27.79 0c.903-5.432 4.78-9.85 9.708-11.491zM44.45 15.607a28.395 28.395 0 0 1-12.383 0 1 1 0 0 1 .435-1.952c3.78.844 7.744.843 11.512 0a1.001 1.001 0 0 1 .436 1.952zm-22.867 7.367c.019-.649.077-2.625 1.495-3.16 1.401-.528 2.831.895 3.103 1.186a1.001 1.001 0 0 1-1.461 1.367c-.277-.293-.692-.586-.913-.654-.068.129-.2.485-.225 1.321-.102 3.471 2.588 4.407 2.615 4.417a1 1 0 0 1 .648.682l.043.157c.017.06.027.122.033.184.765 9.116 7.969 12.065 11.338 12.065 3.369 0 10.573-2.949 11.338-12.065a1.01 1.01 0 0 1 .032-.181l.043-.157c.088-.322.332-.579.648-.685.104-.037 2.715-.994 2.615-4.417-.024-.835-.156-1.19-.224-1.32-.222.07-.649.371-.914.654a1 1 0 1 1-1.461-1.367c.271-.292 1.698-1.716 3.103-1.186 1.418.536 1.476 2.511 1.495 3.16.102 3.452-1.922 5.373-3.388 6.12-.999 9.267-8.317 13.442-13.287 13.442-4.971 0-12.289-4.174-13.287-13.441-1.466-.749-3.491-2.67-3.389-6.122zm18.204-.193a.998.998 0 0 0-.759.349c-.051.06-.074.134-.109.203h-1.321c-.035-.069-.058-.143-.109-.203a1.001 1.001 0 0 0-.759-.349h-7.882a1.001 1.001 0 0 0-1 1.017c.017.935.177 4.071 1.552 5.188.877.713 2.247 1.156 3.576 1.156 1.27 0 2.335-.402 3.001-1.132.721-.79 1.201-2.447 1.475-3.678h1.613c.274 1.231.754 2.888 1.475 3.678.667.73 1.733 1.132 3.002 1.132 1.328 0 2.698-.443 3.576-1.156 1.374-1.117 1.535-4.253 1.552-5.188a1.002 1.002 0 0 0-1-1.017h-7.883zM34.5 27.662c-.279.306-.834.48-1.524.48-.863 0-1.793-.284-2.314-.708-.345-.28-.627-1.463-.75-2.654h5.612c-.259 1.174-.648 2.47-1.024 2.882zm11.356-.227c-.521.423-1.451.708-2.314.708-.69 0-1.246-.175-1.525-.481-.375-.412-.765-1.708-1.023-2.88h5.612c-.123 1.19-.405 2.372-.75 2.653zM70.76 42.892a104.414 104.414 0 0 1-30.796 5.162v24.091a1 1 0 0 1-2 0V51.674a104.217 104.217 0 0 1-22.574-2.531.961.961 0 0 1-.234-.051 104.866 104.866 0 0 1-9.359-2.565l.563 7.735a1 1 0 0 1-.925 1.07l-.074.002a1 1 0 0 1-.997-.927l-.671-9.232a1.001 1.001 0 0 1 1.321-1.019 102.67 102.67 0 0 0 10.015 2.849c2.127-3.385 5.582-5.955 10.294-7.651l-.062-1.046a1 1 0 0 1 .939-1.057c.546-.048 1.025.387 1.057.939l.257 4.332 2.988-1.07a1 1 0 1 1 .675 1.883l-4.245 1.521a.995.995 0 0 1-.888-.107 1.001 1.001 0 0 1-.447-.775l-.15-2.533c-3.766 1.439-6.527 3.423-8.354 6.037a102.418 102.418 0 0 0 20.872 2.196v-2.607a1 1 0 0 1 .993-1 102.53 102.53 0 0 0 17.546-1.646c-1.458-1.169-3.27-2.195-5.303-2.989l-.151 2.542a1 1 0 0 1-1.335.882l-4.244-1.521a1 1 0 0 1 .675-1.883l2.987 1.07.257-4.332c.032-.552.504-.986 1.057-.939a1 1 0 0 1 .939 1.057l-.062 1.04c3.067 1.114 5.745 2.723 7.652 4.599a102.727 102.727 0 0 0 12.529-3.414.999.999 0 0 1 1.322.993l-.635 13.433a1 1 0 1 1-1.998-.094l.566-11.973zm4.832 15.539c-.893-.897-2.291-1.334-4.274-1.334s-3.382.437-4.274 1.334c-1.194 1.201-1.185 2.886-1.177 4.373l.001 6.94c0 3.005 2.445 5.45 5.45 5.45s5.45-2.445 5.45-5.45l.001-6.94c.008-1.487.018-3.172-1.177-4.373zm-.822 4.362l-.001 6.951a3.454 3.454 0 0 1-3.45 3.45 3.452 3.452 0 0 1-3.146-2.048h2.037a1 1 0 0 0 0-2h-2.342v-1.688h2.342a1 1 0 0 0 0-2h-2.343v-1.821h2.343a1 1 0 0 0 0-2h-2.325c.041-.741.171-1.387.577-1.795.491-.494 1.452-.745 2.856-.745s2.365.25 2.856.745c.608.61.602 1.747.596 2.951zM5.817 56.439c-2.123 0-3.616.464-4.566 1.419-1.268 1.275-1.258 3.08-1.25 4.672l.001 7.507c0 3.206 2.608 5.814 5.814 5.814s5.814-2.608 5.814-5.814l.001-7.508c.009-1.592.019-3.397-1.25-4.671-.948-.955-2.442-1.419-4.564-1.419zm0 17.412a3.818 3.818 0 0 1-3.814-3.814l-.001-7.518c-.007-1.319-.014-2.566.667-3.251.547-.55 1.606-.83 3.148-.83s2.601.279 3.148.83c.474.476.612 1.226.652 2.081H7.016a1 1 0 0 0 0 2h2.616v2.134H7.016a1 1 0 0 0 0 2h2.615v1.99H7.016a1 1 0 0 0 0 2h2.329a3.815 3.815 0 0 1-3.528 2.378z" fill="#231f20"/></svg>