<svg xmlns="http://www.w3.org/2000/svg" viewBox="0 0 512 512"><path d="M400.32 399.36c-13.653 12.8-13.653 34.133 0 47.787 6.827 6.827 15.36 10.24 23.893 10.24s17.067-3.413 23.893-10.24c13.653-12.8 13.653-34.133 0-47.787-12.799-13.653-34.133-13.653-47.786 0zm35.84 36.693c-6.827 6.827-17.067 6.827-23.893 0s-6.827-17.067 0-23.893c3.413-3.413 7.68-5.12 11.947-5.12s8.533 1.707 11.947 5.12c6.826 6.827 6.826 17.067-.001 23.893z"/><path d="M506.133 409.6L352.533 256l60.587-60.587.001-.001 35.839-35.839.001-.001 52.052-52.052c14.507-14.507 14.507-38.4 0-52.907l-43.52-43.52C450.667 4.267 441.28 0 431.04 0s-19.627 4.267-26.453 11.093l-52.053 52.053-35.84 35.84-60.587 60.587L104.213 7.68c-9.387-9.387-26.453-9.387-35.84 0L7.787 68.267c-10.24 9.387-10.24 25.6 0 35.84l17.92 17.92 48.64 48.64 47.786 47.786.001.001L159.68 256 22.694 392.986c-2.554 1.127-3.931 3.43-4.667 6.374L.107 501.76c0 3.413.853 5.973 2.56 7.68C4.373 511.147 6.08 512 8.64 512h1.707l98.445-18.2c.681.18 1.416.28 2.248.28 2.56 0 5.12-.853 5.973-2.56l139.093-139.093 11.093 11.093.001.001.001.001 23.892 23.892.001.001.001.001 118.612 118.612c4.267 4.267 9.387 5.973 14.507 5.973s10.24-1.707 13.653-5.973l68.267-68.267c7.679-7.681 7.679-20.481-.001-28.161zM111.04 472.747l-29.858-29.858 283.716-282.898 29.449 29.449L111.04 472.747zM416.533 23.04c7.68-7.68 21.333-7.68 29.013 0l43.52 43.52c7.68 7.68 7.68 21.333 0 29.013l-46.08 46.08-72.533-72.533 46.08-46.08zm-58.026 58.027l36.267 36.267L431.04 153.6l-23.893 23.893-72.533-72.533 23.893-23.893zM164.373 236.8l18.347-18.347c3.413-3.413 3.413-8.533 0-11.947s-8.533-3.413-11.947 0l-18.347 18.347-12.373-12.373 29.867-29.867c3.413-3.413 3.413-8.533 0-11.947s-8.533-3.413-11.947 0l-29.867 29.867-11.947-11.947 17.92-17.92c3.413-3.413 3.413-8.533 0-11.947s-8.533-3.413-11.947 0l-17.92 17.92-11.947-11.947 29.867-29.867c3.413-3.413 3.413-8.533 0-11.947s-8.533-3.413-11.947 0L80.32 152.747l-12.8-12.8 17.92-17.92c3.413-3.413 3.413-8.533 0-11.947s-8.533-3.413-11.947 0L55.573 128l-11.947-11.947 29.867-29.867c3.413-3.413 3.413-8.533 0-11.947s-8.533-3.413-11.947 0L31.68 104.107 19.733 92.16c-3.413-3.413-3.413-8.533 0-11.947L80.32 19.627c1.707-1.707 3.413-2.56 5.973-2.56 1.707 0 4.267.853 5.973 2.56L244.16 171.52l-72.533 72.533-7.254-7.253zm158.294-119.04l29.858 29.858L68.809 430.516 39.36 401.067 322.667 117.76zM32.533 418.133l27.996 27.996a8.875 8.875 0 0 0 1.871 2.724l30.846 30.845-73.512 12.674 12.799-74.239zm461.654 7.68L425.92 494.08c-.853.853-3.413.853-4.267 0l-88.32-88.32 30.293-30.293c3.413-3.413 3.413-8.533 0-11.947-3.413-3.413-8.533-3.413-11.947 0l-30.293 30.293-12.373-12.373 17.92-17.92c3.413-3.413 3.413-8.533 0-11.947-3.413-3.413-8.533-3.413-11.947 0l-17.92 17.92-11.947-11.947 29.867-29.867c3.413-3.413 3.413-8.533 0-11.947-3.413-3.413-8.533-3.413-11.947 0L273.173 345.6l-5.12-5.12 72.533-72.533 153.6 153.6c.854.853.854 3.413.001 4.266z"/></svg>