<svg xmlns="http://www.w3.org/2000/svg" viewBox="0 0 329.613 329.613"><path d="M20.961 52.424L46.27 77.733H13.673c-6.986 0-12.654-5.668-12.654-12.654 0-6.992 5.668-12.654 12.654-12.654h7.288zm16.479 0l25.309 25.309h29.827l-25.31-25.309H37.44zm243.403 77.726l23.047 88.896h9.049c8.638 0 15.656 7.025 15.656 15.656v79.262c0 8.631-7.018 15.649-15.656 15.649H173.547c-8.631 0-15.649-7.018-15.649-15.649v-79.263c0-8.631 7.018-15.656 15.649-15.656h45.277l-6.793-26.209-22.179-9.139a2.91 2.91 0 0 1-1.581-3.785 2.903 2.903 0 0 1 3.792-1.575l2.539 1.041 8.561-20.759-7.378-28.471h-9.917l-73.889-25.482V77.733h-2.937l-25.31-25.309h28.246V25.765L185.867 0h123.447c10.63 0 19.28 8.651 19.28 19.281v91.589c0 10.63-8.651 19.281-19.28 19.281l-28.471-.001zm28.471-117.296H193.367v104.442h115.946a6.43 6.43 0 0 0 6.427-6.427V19.281a6.427 6.427 0 0 0-6.426-6.427zM124.832 95.509l55.689 19.197v-99.23l-55.689 19.415v60.618zM315.741 271.9h-60.766v-16.016H240.63V271.9h-69.879v42.064a2.803 2.803 0 0 0 2.802 2.796h139.392a2.803 2.803 0 0 0 2.802-2.796V271.9h-.006zm-8.522-40.001H173.553a2.805 2.805 0 0 0-2.802 2.802v24.345h57.025v-3.162c0-7.089 5.771-12.854 12.854-12.854h14.345c7.095 0 12.854 5.765 12.854 12.854v3.162h47.912v-24.345a2.805 2.805 0 0 0-2.802-2.802h-5.72zM267.565 130.15h-58.516l23.059 88.896h58.51l-23.053-88.896zm-48.69-81.062h74.436a5.889 5.889 0 1 0 0-11.78h-74.436a5.89 5.89 0 1 0 0 11.78zm0 21.877h74.436a5.889 5.889 0 1 0 0-11.78h-74.436a5.89 5.89 0 1 0 0 11.78zm74.436 10.09h-74.436a5.894 5.894 0 1 0 0 11.786h74.436a5.894 5.894 0 1 0 0-11.786z"/></svg>