<svg xmlns="http://www.w3.org/2000/svg" viewBox="0 0 512 512"><path d="M500.915 196.355h-18.609c-20.311-92.916-96.02-164.937-189.885-180.513V7.918A7.917 7.917 0 0 0 284.503 0h-57.006a7.916 7.916 0 0 0-7.917 7.918v7.26c-47.023 6.897-90.202 27.681-125.197 60.347-35.034 32.701-58.787 74.39-68.916 120.83H11.085a7.916 7.916 0 0 0-7.918 7.917v44.338a7.917 7.917 0 0 0 7.918 7.918h42.173c.227.197.462.387.716.562a351.678 351.678 0 0 0 4.988 3.378c58.439 38.86 126.573 59.4 197.039 59.4 70.89 0 139.369-20.769 198.03-60.063a351.48 351.48 0 0 0 4.496-3.06c.098-.068.187-.145.282-.216h42.107a7.917 7.917 0 0 0 7.918-7.918v-44.338a7.918 7.918 0 0 0-7.919-7.918zM292.421 31.903c85.162 15.201 153.834 80.323 173.646 164.451H292.421V31.903zm-57.007-16.068h41.171v180.52h-41.171V15.835zM256 304.033c-61.501 0-121.135-16.38-173.548-47.505h347.111C377.148 287.66 317.528 304.033 256 304.033zm236.998-63.34H19.002V212.19h144.099c4.374 0 7.918-3.544 7.918-7.918s-3.544-7.917-7.918-7.917H41.702C61.939 110.05 132.004 44.982 219.579 31.192v165.163h-14.252c-4.374 0-7.917 3.544-7.917 7.917s3.544 7.918 7.917 7.918h287.67v28.503zm-41.699 99.233h-34.837c-4.374 0-7.917 3.544-7.917 7.918s3.544 7.918 7.917 7.918h34.837c4.366 0 7.917 3.551 7.917 7.917v124.569c0 4.366-3.551 7.918-7.917 7.918h-83.398c-48.022 0-87.093-39.07-87.093-87.093v-27.447a7.916 7.916 0 0 0-7.917-7.918H239.11a7.917 7.917 0 0 0-7.918 7.918v27.447c0 48.022-39.07 87.093-87.093 87.093H60.701c-4.366 0-7.918-3.551-7.918-7.918v-124.57c0-4.366 3.551-7.917 7.918-7.917h313.534c4.374 0 7.918-3.544 7.918-7.918s-3.544-7.918-7.918-7.918H60.701c-13.097 0-23.753 10.656-23.753 23.753v124.569c0 13.097 10.656 23.753 23.753 23.753h83.398c56.755 0 102.928-46.173 102.928-102.928v-19.53h17.946v19.53c0 56.755 46.173 102.928 102.928 102.928h83.398c13.097 0 23.753-10.656 23.753-23.753V363.678c0-13.096-10.656-23.752-23.753-23.752z"/><path d="M207.439 371.596H76.536a7.917 7.917 0 0 0-7.918 7.918v92.899a7.916 7.916 0 0 0 7.918 7.917h67.563c39.292 0 71.258-31.966 71.258-71.258v-29.559a7.916 7.916 0 0 0-7.918-7.917zm-7.917 37.476c0 30.56-24.863 55.423-55.423 55.423H84.454v-77.064h115.068v21.641zm235.942-37.476H304.561a7.917 7.917 0 0 0-7.918 7.918v29.559c0 39.292 31.966 71.258 71.258 71.258h67.563a7.916 7.916 0 0 0 7.918-7.917v-92.899a7.918 7.918 0 0 0-7.918-7.919zm-7.918 92.899h-59.645c-30.56 0-55.423-24.863-55.423-55.423v-21.641h115.068v77.064z"/><path d="M379.834 399.251a7.92 7.92 0 0 0-11.198 0l-30.614 30.614c-4.877 4.877-1.327 13.516 5.598 13.516a7.897 7.897 0 0 0 5.599-2.318l30.614-30.614a7.918 7.918 0 0 0 .001-11.198zm33.781 0a7.92 7.92 0 0 0-11.198 0l-30.614 30.614a7.92 7.92 0 0 0 0 11.197c3.051 3.05 8.147 3.05 11.198 0l30.614-30.614a7.917 7.917 0 0 0 0-11.197zm-271.306 0a7.92 7.92 0 0 0-11.197 0l-30.614 30.614c-4.877 4.877-1.327 13.516 5.598 13.516a7.897 7.897 0 0 0 5.599-2.318l30.614-30.614a7.919 7.919 0 0 0 0-11.198zm33.78 0a7.92 7.92 0 0 0-11.197 0l-30.614 30.614a7.92 7.92 0 0 0 0 11.197c3.051 3.05 8.147 3.05 11.197 0l30.614-30.614a7.917 7.917 0 0 0 0-11.197z"/></svg>