<svg xmlns="http://www.w3.org/2000/svg" viewBox="0 0 285 285"><path d="M278.222 37.125a6.79 6.79 0 0 0-6.798 6.788v48.196L126.679 119.56c-3.191.612-5.522 3.411-5.522 6.667v25.519a6.789 6.789 0 0 0 6.797 6.788c3.742 0 6.778-3.04 6.778-6.788v-19.903l144.745-27.452A6.772 6.772 0 0 0 285 97.724V43.913c0-3.748-3.037-6.788-6.778-6.788z"/><path d="M255.851 73.693V14.12a6.783 6.783 0 0 0-6.778-6.779H6.778A6.783 6.783 0 0 0 0 14.12v59.573a6.783 6.783 0 0 0 6.778 6.779h242.294a6.784 6.784 0 0 0 6.779-6.779zm-110.952 96.803h-33.93a6.79 6.79 0 0 0-6.798 6.788v93.596c0 3.739 3.037 6.779 6.798 6.779h33.93a6.783 6.783 0 0 0 6.779-6.779v-93.596a6.784 6.784 0 0 0-6.779-6.788z"/></svg>