<svg xmlns="http://www.w3.org/2000/svg" viewBox="0 0 470 470"><path d="M467.803 457.196l-70.71-70.711a7.501 7.501 0 0 0-10.606 10.607L444.394 455H15v-45h22.5c4.142 0 7.5-3.357 7.5-7.5s-3.358-7.5-7.5-7.5H15v-30h22.5c4.142 0 7.5-3.357 7.5-7.5s-3.358-7.5-7.5-7.5H15v-30h22.5c4.142 0 7.5-3.357 7.5-7.5s-3.358-7.5-7.5-7.5H15v-30h22.5c4.142 0 7.5-3.357 7.5-7.5s-3.358-7.5-7.5-7.5H15v-30h22.5c4.142 0 7.5-3.357 7.5-7.5s-3.358-7.5-7.5-7.5H15v-30h22.5c4.142 0 7.5-3.357 7.5-7.5s-3.358-7.5-7.5-7.5H15v-30h22.5c4.142 0 7.5-3.357 7.5-7.5s-3.358-7.5-7.5-7.5H15V95h22.5c4.142 0 7.5-3.357 7.5-7.5S41.642 80 37.5 80H15V25.607L365.273 375.88a7.501 7.501 0 0 0 10.606-10.607L12.803 2.196A7.5 7.5 0 0 0 0 7.5v455a7.5 7.5 0 0 0 7.5 7.5h455a7.499 7.499 0 0 0 5.303-12.804z"/><path d="M162.521 286.266a7.501 7.501 0 0 0 10.606-10.607l-80.325-80.325a7.5 7.5 0 0 0-12.803 5.304V382.5a7.5 7.5 0 0 0 7.5 7.5h181.863a7.499 7.499 0 0 0 5.303-12.804l-80.325-80.325a7.501 7.501 0 0 0-10.606 10.607L251.256 375H95V218.743l67.521 67.523z"/></svg>