<svg xmlns="http://www.w3.org/2000/svg" viewBox="0 0 512 512"><path d="M503.202 444.126L390.89 331.815l7.115-18.973a9.644 9.644 0 0 0-2.21-10.203l-16.757-16.757c-3.765-3.764-9.868-3.765-13.635 0l-21.053 21.053-44.014-44.014 97.59-97.578c9.37-9.381 21.227-16.564 34.286-20.774 11.149-3.589 21.432-9.878 29.738-18.184 14.368-14.365 22.101-33.468 21.78-53.789-.321-20.319-8.673-39.181-23.515-53.111a9.64 9.64 0 0 0-15.802 4.16L432.188 62.84a18.853 18.853 0 0 1-9.309 11.158 18.878 18.878 0 0 1-14.477 1.315c-7.985-2.494-13.351-9.775-13.351-18.113 0-1.91.294-3.82.874-5.678l12.083-38.744a9.639 9.639 0 0 0-1.923-9.188 9.633 9.633 0 0 0-8.826-3.197c-13.792 2.239-26.577 8.259-36.97 17.405-18.299 16.089-27.608 40.11-24.902 64.251 2.764 24.788-6.073 49.426-24.244 67.597L249.1 211.687 115.142 77.729l-2.428-26.272a9.642 9.642 0 0 0-4.476-7.281L40.15 1.474a9.644 9.644 0 0 0-11.941 1.351L2.824 28.209a9.64 9.64 0 0 0-1.35 11.939l42.703 68.087a9.637 9.637 0 0 0 7.28 4.477l26.272 2.427 133.963 133.965-97.586 97.573c-9.377 9.379-21.238 16.559-34.304 20.767-11.297 3.638-21.301 9.76-29.739 18.196-14.366 14.366-22.1 33.468-21.778 53.785.323 20.314 8.673 39.173 23.515 53.104a9.642 9.642 0 0 0 15.801-4.155l12.239-39.187a18.868 18.868 0 0 1 9.307-11.168 18.884 18.884 0 0 1 14.111-1.427c.123.044.247.085.373.125 9.992 3.115 15.588 13.789 12.474 23.789l-12.083 38.731a9.64 9.64 0 0 0 10.751 12.388c13.769-2.239 26.549-8.251 36.971-17.396 18.279-16.086 27.587-40.109 24.897-64.267-2.773-24.775 6.064-49.411 24.243-67.592l62.043-62.031 44.009 44.009-21.053 21.053c-3.765 3.768-3.765 9.872 0 13.637l16.757 16.759a9.648 9.648 0 0 0 10.203 2.21l18.975-7.115 112.31 112.311c5.866 5.866 13.572 8.799 21.277 8.799 7.705 0 15.41-2.932 21.277-8.799l16.523-16.523c11.728-11.734 11.728-30.823-.003-42.554zM324.776 163.278c22.339-22.337 33.191-52.725 29.773-83.374-2.005-17.891 4.9-35.697 18.475-47.632a54.026 54.026 0 0 1 11.05-7.519l-6.557 21.022a38.279 38.279 0 0 0-1.748 11.42c0 16.82 10.803 31.495 26.888 36.52 20.151 6.282 41.657-4.994 47.939-25.14l6.81-21.836c4.458 7.897 6.895 16.82 7.043 26.159.239 15.055-5.492 29.208-16.135 39.849-6.24 6.24-13.645 10.77-22.016 13.465-15.963 5.144-30.492 13.963-42.011 25.496l-97.586 97.574-23.966-23.966 62.041-62.038zM187.248 348.735c-22.35 22.35-33.201 52.739-29.771 83.366 1.994 17.905-4.912 35.719-18.462 47.643a54.233 54.233 0 0 1-11.058 7.511l6.556-21.012c6.22-19.977-4.808-41.281-24.618-47.768a11.263 11.263 0 0 0-.527-.181c-9.762-3.04-20.124-2.1-29.177 2.649-9.055 4.751-15.717 12.744-18.756 22.501l-6.821 21.837c-4.461-7.897-6.9-16.822-7.048-26.161-.239-15.053 5.492-29.203 16.135-39.847 6.251-6.251 13.658-10.786 22.014-13.477 15.964-5.141 30.498-13.954 42.027-25.486l97.586-97.574 23.965 23.965-62.045 62.034zM87.934 98.078a9.61 9.61 0 0 0-6.818-2.824 9.67 9.67 0 0 0-3.19.541l-19.948-1.843-36.087-57.54L36.413 21.89l57.541 36.088 1.843 19.95a9.644 9.644 0 0 0 2.281 10.004l232.635 232.637-10.145 10.146L87.934 98.078zm240.967 273.31l-17.018 6.381-5.551-5.551 65.888-65.886 5.551 5.551-6.381 17.017-42.489 42.488zm160.665 101.654l-16.523 16.523c-4.212 4.212-11.069 4.212-15.283 0L347.877 379.683l31.806-31.806L489.566 457.76c4.214 4.213 4.214 11.068 0 15.282z"/></svg>