<svg xmlns="http://www.w3.org/2000/svg" viewBox="0 0 73.457 73.457"><path d="M70.916 27.294H47.524v-5.711a1.5 1.5 0 0 0-1.5-1.5h-1.415v-3.09c0-4.346-3.535-7.881-7.881-7.881-4.345 0-7.88 3.535-7.88 7.881v3.09h-1.415a1.5 1.5 0 0 0-1.5 1.5v5.711H2.542a1 1 0 0 0-1 1v19.492a1 1 0 0 0 1 1h6.966L5.535 73.457h8.35l2.416-15h40.856l2.416 15h8.35L63.95 48.786h6.967a1 1 0 0 0 1-1V28.294c-.001-.552-.449-1-1.001-1zm-41.983-4.211h15.591v2.998H28.933v-2.998zm2.915-6.09a4.886 4.886 0 0 1 4.88-4.881 4.886 4.886 0 0 1 4.881 4.881v3.09h-9.761v-3.09zM10.87 46.786l4.665-17.492h7.09L17.96 46.786h-7.09zm19.79-17.492h7.089l-4.665 17.492h-7.089l4.665-17.492zm15.124 0h7.089l-4.665 17.492h-7.089l4.665-17.492zm10.459 17.492l4.665-17.492h7.089l-4.665 17.492h-7.089zM7.501 29.294L3.542 44.139V29.294h3.959zm9.283 26.163l.283-1.755h39.325l.283 1.755H16.784zm39.285-3.755h-38.68l.47-2.916H55.6l.469 2.916zM35.228 6.069V1.5a1.5 1.5 0 1 1 3 0v4.569a1.5 1.5 0 1 1-3 0zm8.303 4.448a1.5 1.5 0 0 1 0-2.121l3.23-3.23a1.5 1.5 0 1 1 2.121 2.121l-3.23 3.23a1.495 1.495 0 0 1-1.061.439 1.49 1.49 0 0 1-1.06-.439zM24.482 7.063a1.5 1.5 0 1 1 2.121-2.121l3.23 3.231a1.5 1.5 0 1 1-2.122 2.121l-3.229-3.231z" fill="#231f20"/></svg>